# This file uses centimeters as units for non-parametric coordinates.

mtllib building_rough_09.mtl
g default
v 0.394982 0.000000 0.186544
v 1.138266 0.000000 0.186544
v 0.394982 2.266960 0.186544
v 1.138266 2.266960 0.186544
v 0.394982 2.266960 -0.416953
v 1.138266 2.266960 -0.416953
v 0.394982 0.000000 -0.416953
v 1.138266 0.000000 -0.416953
v -1.060965 0.000000 0.073746
v -1.060965 0.000000 0.186544
v -1.060965 2.266960 0.186544
v -1.060965 2.266960 0.073746
v -0.493956 0.000000 -0.416953
v -0.610687 0.000000 -0.389982
v -0.727416 0.000000 -0.346493
v -0.844146 0.000000 -0.258593
v -0.960877 0.000000 -0.100923
v -0.960877 0.000000 0.186544
v -0.844146 0.000000 0.186544
v -0.727416 0.000000 0.186544
v -0.610687 0.000000 0.186544
v -0.493956 0.000000 0.186544
v -0.960877 2.266960 0.186544
v -0.844146 2.266960 0.186544
v -0.727416 2.266960 0.186544
v -0.610687 2.266960 0.186544
v -0.493956 2.266960 0.186544
v -0.960877 2.266960 -0.100923
v -0.844146 2.266960 -0.258593
v -0.727416 2.266960 -0.346493
v -0.610687 2.266960 -0.389982
v -0.493956 2.266960 -0.416953
v -0.960877 2.431158 -0.100923
v -0.960877 2.431158 0.186544
v -1.060965 2.431158 0.073746
v -1.060965 2.431158 0.186544
v 0.394982 2.431158 -0.416953
v -0.493956 2.431158 -0.416953
v -0.493956 2.431158 0.186544
v 0.394982 2.431158 0.186544
v -0.610687 2.431158 0.186544
v -0.610687 2.431158 -0.389982
v -0.727416 2.431158 0.186544
v -0.727416 2.431158 -0.346493
v -0.844146 2.431158 0.186544
v -0.844146 2.431158 -0.258593
v 0.394982 1.133480 0.186544
v 1.138266 1.133480 0.186544
v 1.138266 1.133480 -0.416953
v 0.394982 1.133480 -0.416953
v -0.493956 1.133480 -0.416953
v -0.610687 1.133480 -0.389982
v -0.727416 1.133480 -0.346493
v -0.844146 1.133480 -0.258593
v -0.960877 1.133480 -0.100923
v -1.060965 1.133480 0.073746
v -1.060965 1.133480 0.186544
v -0.960877 1.133480 0.186544
v -0.844146 1.133480 0.186544
v -0.727416 1.133480 0.186544
v -0.610687 1.133480 0.186544
v -0.493956 1.133480 0.186544
v 1.138266 0.000000 -0.589947
v 1.138266 0.000000 0.013550
v 1.138266 1.133480 -0.589947
v 1.138266 1.133480 0.013550
v 0.394982 1.133480 -0.589947
v 0.394982 0.000000 -0.589947
v -0.493956 0.000000 -0.589947
v -0.493956 1.133480 -0.589947
v -0.641993 0.000000 -0.570245
v -0.641993 1.133480 -0.570245
v -0.792395 0.000000 -0.497002
v -0.792395 1.133480 -0.497002
v -0.956403 0.000000 -0.367322
v -0.956403 1.133480 -0.367322
v -1.098871 0.000000 -0.149630
v -1.098871 1.133480 -0.149630
v -1.138266 1.133480 0.081109
v -1.138266 0.000000 0.081109
v -1.138266 0.000000 0.193908
v -1.138266 1.133480 0.193908
v -0.844146 0.000000 0.589947
v -0.960877 0.000000 0.589947
v -0.844146 1.133480 0.589947
v -0.960877 1.133480 0.589947
v -0.727416 0.000000 0.589947
v -0.727416 1.133480 0.589947
v -0.610687 0.000000 0.589947
v -0.610687 1.133480 0.589947
v -0.493956 0.000000 0.589947
v -0.493956 1.133480 0.589947
v 0.394982 1.133480 0.589947
v 0.394982 0.000000 0.589947
vt 0.375000 0.000000
vt 0.625000 0.000000
vt 0.375000 0.250000
vt 0.625000 0.250000
vt 0.375000 0.500000
vt 0.625000 0.500000
vt 0.375000 0.750000
vt 0.625000 0.750000
vt 0.375000 1.000000
vt 0.625000 1.000000
vt 0.875000 0.000000
vt 0.875000 0.250000
vt 0.125000 0.000000
vt 0.125000 0.250000
vt 0.375000 0.000000
vt 0.125000 0.000000
vt 0.375000 0.250000
vt 0.375000 0.000000
vt 0.125000 0.250000
vt 0.375000 0.250000
vt 0.125000 0.000000
vt 0.125000 0.250000
vt 0.125000 0.000000
vt 0.375000 0.000000
vt 0.375000 0.250000
vt 0.125000 0.250000
vt 0.126034 0.000458
vt 0.125000 0.000000
vt 0.126034 0.000458
vt 0.373966 0.000458
vt 0.375000 0.000000
vt 0.373966 0.000458
vt 0.373966 0.249542
vt 0.375000 0.250000
vt 0.373966 0.249542
vt 0.126034 0.249542
vt 0.125000 0.250000
vt 0.126034 0.249542
vt 0.125000 0.250000
vt 0.125000 0.250000
vt 0.375000 0.250000
vt 0.375000 0.250000
vt 0.125000 0.250000
vt 0.125000 0.250000
vt 0.375000 0.250000
vt 0.375000 0.250000
vt 0.373966 0.249542
vt 0.126034 0.249542
vt 0.375000 0.250000
vt 0.125000 0.250000
vt 0.373966 0.249542
vt 0.126034 0.249542
vt 0.375000 0.125000
vt 0.625000 0.125000
vt 0.625000 0.625000
vt 0.875000 0.125000
vt 0.125000 0.125000
vt 0.375000 0.625000
vt 0.125000 0.125000
vt 0.126034 0.125000
vt 0.125000 0.125000
vt 0.126034 0.125000
vt 0.125000 0.125000
vt 0.125000 0.125000
vt 0.375000 0.125000
vt 0.375000 0.125000
vt 0.373966 0.125000
vt 0.375000 0.125000
vt 0.373966 0.125000
vt 0.375000 0.125000
vt 0.625000 0.000000
vt 0.875000 0.000000
vt 0.875000 0.125000
vt 0.625000 0.125000
vt 0.375000 0.625000
vt 0.625000 0.625000
vt 0.625000 0.750000
vt 0.375000 0.750000
vt 0.125000 0.000000
vt 0.125000 0.000000
vt 0.125000 0.125000
vt 0.125000 0.125000
vt 0.126034 0.000458
vt 0.126034 0.125000
vt 0.125000 0.000000
vt 0.125000 0.125000
vt 0.126034 0.000458
vt 0.126034 0.125000
vt 0.125000 0.000000
vt 0.125000 0.125000
vt 0.125000 0.125000
vt 0.125000 0.000000
vt 0.375000 0.000000
vt 0.375000 0.125000
vt 0.375000 0.000000
vt 0.373966 0.000458
vt 0.373966 0.125000
vt 0.375000 0.125000
vt 0.375000 0.000000
vt 0.375000 0.125000
vt 0.373966 0.000458
vt 0.373966 0.125000
vt 0.375000 0.000000
vt 0.375000 0.125000
vt 0.375000 0.125000
vt 0.375000 0.000000
vn 0.000000 0.000000 1.000000
vn 0.000000 0.000000 1.000000
vn 0.000000 0.000000 1.000000
vn 0.000000 0.000000 1.000000
vn 0.000000 1.000000 0.000000
vn 0.000000 1.000000 0.000000
vn 0.000000 1.000000 0.000000
vn 0.000000 1.000000 0.000000
vn 0.000000 0.000000 -1.000000
vn 0.000000 0.000000 -1.000000
vn 0.000000 0.000000 -1.000000
vn 0.000000 0.000000 -1.000000
vn 0.000000 -1.000000 0.000000
vn 0.000000 -1.000000 0.000000
vn 0.000000 -1.000000 0.000000
vn 0.000000 -1.000000 0.000000
vn 1.000000 0.000000 0.000000
vn 1.000000 0.000000 0.000000
vn 1.000000 0.000000 0.000000
vn 1.000000 0.000000 0.000000
vn -1.000000 0.000000 0.000000
vn -1.000000 0.000000 0.000000
vn -1.000000 0.000000 0.000000
vn -1.000000 0.000000 0.000000
vn 0.000000 -1.000000 0.000000
vn 0.000000 -1.000000 0.000000
vn 0.000000 -1.000000 0.000000
vn 0.000000 -1.000000 0.000000
vn 0.000000 -1.000000 0.000000
vn 0.000000 -1.000000 0.000000
vn 0.000000 -1.000000 0.000000
vn 0.000000 -1.000000 0.000000
vn 0.000000 -1.000000 0.000000
vn 0.000000 -1.000000 0.000000
vn 0.000000 -1.000000 0.000000
vn 0.000000 -1.000000 0.000000
vn 0.000000 0.000000 1.000000
vn 0.000000 0.000000 1.000000
vn 0.000000 0.000000 1.000000
vn 0.000000 0.000000 1.000000
vn 0.000000 1.000000 0.000000
vn 0.000000 1.000000 0.000000
vn 0.000000 1.000000 0.000000
vn 0.000000 1.000000 0.000000
vn -0.837522 0.000000 -0.546403
vn -0.837522 0.000000 -0.546403
vn -0.867648 0.000000 -0.497179
vn -0.867648 0.000000 -0.497179
vn 0.000000 -1.000000 0.000000
vn 0.000000 -1.000000 0.000000
vn 0.000000 0.000000 1.000000
vn 0.000000 0.000000 1.000000
vn 0.000000 0.000000 1.000000
vn 0.000000 0.000000 1.000000
vn 0.000000 1.000000 0.000000
vn 0.000000 1.000000 0.000000
vn 0.000000 1.000000 0.000000
vn 0.000000 1.000000 0.000000
vn 0.000000 0.000000 -1.000000
vn -0.026809 0.000000 -0.999641
vn -0.026809 0.000000 -0.999641
vn 0.000000 0.000000 -1.000000
vn 0.000000 0.000000 1.000000
vn 0.000000 0.000000 1.000000
vn 0.000000 0.000000 1.000000
vn 0.000000 0.000000 1.000000
vn 0.000000 0.000000 1.000000
vn 0.000000 0.000000 1.000000
vn 0.000000 1.000000 0.000000
vn 0.000000 1.000000 0.000000
vn 0.000000 1.000000 0.000000
vn 0.000000 1.000000 0.000000
vn 0.000000 1.000000 0.000000
vn 0.000000 1.000000 0.000000
vn -0.288935 0.000000 -0.957349
vn -0.288935 0.000000 -0.957349
vn -0.490456 0.000000 -0.871466
vn -0.490456 0.000000 -0.871466
vn -0.724751 0.000000 -0.689011
vn -0.724751 0.000000 -0.689011
vn -0.867648 0.000000 -0.497179
vn -0.867648 0.000000 -0.497179
vn -0.867648 0.000000 -0.497179
vn -0.867648 0.000000 -0.497179
vn -1.000000 0.000000 0.000000
vn -1.000000 0.000000 0.000000
vn -1.000000 0.000000 0.000000
vn -1.000000 0.000000 0.000000
vn 0.000000 0.000000 1.000000
vn 0.000000 0.000000 1.000000
vn 0.000000 0.000000 1.000000
vn 0.000000 0.000000 1.000000
vn 0.000000 0.000000 -1.000000
vn 0.000000 0.000000 -1.000000
vn 0.000000 0.000000 -1.000000
vn 0.000000 0.000000 -1.000000
vn 0.000000 0.000000 1.000000
vn 0.000000 0.000000 1.000000
vn 0.000000 0.000000 1.000000
vn 0.000000 0.000000 1.000000
vn 1.000000 0.000000 0.000000
vn 1.000000 0.000000 0.000000
vn 1.000000 0.000000 0.000000
vn 1.000000 0.000000 0.000000
vn 0.000000 0.000000 1.000000
vn 0.000000 0.000000 1.000000
vn 0.000000 0.000000 1.000000
vn 0.000000 0.000000 1.000000
vn -0.225119 0.000000 -0.974331
vn -0.225119 0.000000 -0.974331
vn -0.225119 0.000000 -0.974331
vn -0.225119 0.000000 -0.974331
vn 0.000000 0.000000 1.000000
vn 0.000000 0.000000 1.000000
vn 0.000000 0.000000 1.000000
vn 0.000000 0.000000 1.000000
vn -0.349122 0.000000 -0.937077
vn -0.349122 0.000000 -0.937077
vn -0.349122 0.000000 -0.937077
vn -0.349122 0.000000 -0.937077
vn 0.000000 0.000000 1.000000
vn 0.000000 0.000000 1.000000
vn 0.000000 0.000000 1.000000
vn 0.000000 0.000000 1.000000
vn -0.803708 0.000000 -0.595024
vn -0.803708 0.000000 -0.595024
vn -0.803708 0.000000 -0.595024
vn -0.803708 0.000000 -0.595024
vn 0.000000 0.000000 1.000000
vn 0.000000 0.000000 1.000000
vn 0.000000 0.000000 1.000000
vn 0.000000 0.000000 1.000000
vn -0.601545 0.000000 -0.798839
vn -0.601545 0.000000 -0.798839
vn -0.601545 0.000000 -0.798839
vn -0.601545 0.000000 -0.798839
vn 0.000000 0.000000 1.000000
vn 0.000000 0.000000 1.000000
vn 0.000000 0.000000 1.000000
vn 0.000000 0.000000 1.000000
vn 1.000000 0.000000 0.000000
vn 1.000000 0.000000 0.000000
vn 1.000000 0.000000 0.000000
vn 1.000000 0.000000 0.000000
vn 0.000000 0.000000 -1.000000
vn 0.000000 0.000000 -1.000000
vn 0.000000 0.000000 -1.000000
vn 0.000000 0.000000 -1.000000
vn 0.000000 0.000000 -1.000000
vn -0.018996 0.000000 -0.999820
vn -0.018996 0.000000 -0.999820
vn 0.000000 0.000000 -1.000000
vn -0.297350 0.000000 -0.954769
vn -0.297350 0.000000 -0.954769
vn -0.542274 0.000000 -0.840202
vn -0.542274 0.000000 -0.840202
vn -0.749869 0.000000 -0.661587
vn -0.749869 0.000000 -0.661587
vn -0.926691 0.000000 -0.375824
vn -0.926691 0.000000 -0.375824
vn -0.985736 0.000000 -0.168296
vn -0.985736 0.000000 -0.168296
vn -1.000000 0.000000 0.000000
vn -1.000000 0.000000 0.000000
vn -1.000000 0.000000 0.000000
vn -1.000000 0.000000 0.000000
vn 0.000000 0.000000 1.000000
vn 0.000000 0.000000 1.000000
vn 0.000000 0.000000 1.000000
vn 0.000000 0.000000 1.000000
vn 0.000000 0.000000 1.000000
vn 0.000000 0.000000 1.000000
vn 0.000000 0.000000 1.000000
vn 0.000000 0.000000 1.000000
vn 0.000000 0.000000 1.000000
vn 0.000000 0.000000 1.000000
vn 0.000000 0.000000 1.000000
vn 0.000000 0.000000 1.000000
vn 0.000000 0.000000 1.000000
vn 0.000000 0.000000 1.000000
vn 0.000000 0.000000 1.000000
vn 0.000000 0.000000 1.000000
vn 0.000000 0.000000 0.000000
vn 0.000000 0.000000 0.000000
vn 0.000000 0.000000 0.000000
vn 0.000000 0.000000 0.000000
vn 0.000000 0.000000 0.000000
vn 0.000000 0.000000 0.000000
vn 0.000000 0.000000 0.000000
vn 0.000000 0.000000 0.000000
vn 1.000000 0.000000 0.000000
vn 1.000000 0.000000 0.000000
vn 1.000000 0.000000 0.000000
vn 1.000000 0.000000 0.000000
vn 0.000000 1.000000 0.000000
vn 0.000000 1.000000 0.000000
vn 0.000000 1.000000 0.000000
vn 0.000000 1.000000 0.000000
vn 0.000000 -1.000000 0.000000
vn 0.000000 -1.000000 0.000000
vn 0.000000 -1.000000 0.000000
vn 0.000000 -1.000000 0.000000
vn 0.000000 -1.000000 0.000000
vn 0.000000 -1.000000 0.000000
vn 0.000000 -1.000000 0.000000
vn 0.000000 -1.000000 0.000000
vn 0.000000 1.000000 0.000000
vn 0.000000 1.000000 0.000000
vn 0.000000 1.000000 0.000000
vn 0.000000 1.000000 0.000000
vn 0.000000 -1.000000 0.000000
vn 0.000000 -1.000000 0.000000
vn 0.000000 -1.000000 0.000000
vn 0.000000 -1.000000 0.000000
vn 0.000000 1.000000 0.000000
vn 0.000000 1.000000 0.000000
vn 0.000000 1.000000 0.000000
vn 0.000000 1.000000 0.000000
vn 0.000000 -1.000000 0.000000
vn 0.000000 -1.000000 0.000000
vn 0.000000 -1.000000 0.000000
vn 0.000000 -1.000000 0.000000
vn 0.000000 1.000000 0.000000
vn 0.000000 1.000000 0.000000
vn 0.000000 1.000000 0.000000
vn 0.000000 1.000000 0.000000
vn 0.000000 -1.000000 0.000000
vn 0.000000 -1.000000 0.000000
vn 0.000000 -1.000000 0.000000
vn 0.000000 -1.000000 0.000000
vn 0.000000 1.000000 0.000000
vn 0.000000 1.000000 0.000000
vn 0.000000 1.000000 0.000000
vn 0.000000 1.000000 0.000000
vn 0.000000 -1.000000 0.000000
vn 0.000000 -1.000000 0.000000
vn 0.000000 -1.000000 0.000000
vn 0.000000 -1.000000 0.000000
vn 0.000000 1.000000 0.000000
vn 0.000000 1.000000 0.000000
vn 0.000000 1.000000 0.000000
vn 0.000000 1.000000 0.000000
vn 0.000000 1.000000 0.000000
vn 0.000000 1.000000 0.000000
vn 0.000000 1.000000 0.000000
vn 0.000000 1.000000 0.000000
vn 0.000000 -1.000000 0.000000
vn 0.000000 -1.000000 0.000000
vn 0.000000 -1.000000 0.000000
vn 0.000000 -1.000000 0.000000
vn 0.000000 -1.000000 0.000000
vn 0.000000 -1.000000 0.000000
vn 0.000000 -1.000000 0.000000
vn 0.000000 -1.000000 0.000000
vn 0.094824 0.000000 0.995494
vn 0.094824 0.000000 0.995494
vn 0.094824 0.000000 0.995494
vn 0.094824 0.000000 0.995494
vn 0.000000 1.000000 0.000000
vn 0.000000 1.000000 0.000000
vn 0.000000 1.000000 0.000000
vn 0.000000 1.000000 0.000000
vn 0.000000 -1.000000 0.000000
vn 0.000000 -1.000000 0.000000
vn 0.000000 -1.000000 0.000000
vn 0.000000 -1.000000 0.000000
vn 0.000000 1.000000 0.000000
vn 0.000000 1.000000 0.000000
vn 0.000000 1.000000 0.000000
vn 0.000000 1.000000 0.000000
vn -1.000000 0.000000 0.000000
vn -1.000000 0.000000 0.000000
vn -1.000000 0.000000 0.000000
vn -1.000000 0.000000 0.000000
vn 0.000000 -1.000000 0.000000
vn 0.000000 -1.000000 0.000000
vn 0.000000 -1.000000 0.000000
vn 0.000000 -1.000000 0.000000
vn 0.000000 1.000000 0.000000
vn 0.000000 1.000000 0.000000
vn 0.000000 1.000000 0.000000
vn 0.000000 1.000000 0.000000
vn 0.000000 -1.000000 0.000000
vn 0.000000 -1.000000 0.000000
vn 0.000000 -1.000000 0.000000
vn 0.000000 -1.000000 0.000000
vn 0.000000 1.000000 0.000000
vn 0.000000 1.000000 0.000000
vn 0.000000 1.000000 0.000000
vn 0.000000 1.000000 0.000000
vn 0.000000 -1.000000 0.000000
vn 0.000000 -1.000000 0.000000
vn 0.000000 -1.000000 0.000000
vn 0.000000 -1.000000 0.000000
vn 0.000000 1.000000 0.000000
vn 0.000000 1.000000 0.000000
vn 0.000000 1.000000 0.000000
vn 0.000000 1.000000 0.000000
vn 0.000000 1.000000 0.000000
vn 0.000000 1.000000 0.000000
vn 0.000000 1.000000 0.000000
vn 0.000000 1.000000 0.000000
vn 0.000000 -1.000000 0.000000
vn 0.000000 -1.000000 0.000000
vn 0.000000 -1.000000 0.000000
vn 0.000000 -1.000000 0.000000
vn 1.000000 0.000000 0.000000
vn 1.000000 0.000000 0.000000
vn 1.000000 0.000000 0.000000
vn 1.000000 0.000000 0.000000
s off
g Building_09
usemtl initialShadingGroup
f 47/53/1 48/54/2 4/4/3 3/3/4
f 3/3/5 4/4/6 6/6/7 5/5/8
f 5/5/9 6/6/10 49/55/11 50/58/12
f 7/7/13 8/8/14 2/10/15 1/9/16
f 48/54/17 49/56/18 6/12/19 4/4/20
f 56/64/21 57/65/22 11/20/23 12/22/24
s 1
f 17/21/25 16/29/26 19/30/27 18/15/28
f 16/29/26 15/28/29 20/31/30 19/30/27
f 15/28/29 14/27/31 21/32/32 20/31/30
f 14/27/31 13/23/33 22/24/34 21/32/32
f 17/21/25 18/15/28 10/18/35 9/16/36
s 2
f 57/65/37 58/66/38 23/17/39 11/20/40
s 3
f 34/42/41 33/39/42 35/40/43 36/41/44
s 4
f 28/19/45 55/63/46 56/64/47 12/22/48
s 1
f 1/1/49 22/24/34 13/23/33 7/13/50
s 2
f 3/3/51 27/25/52 62/70/53 47/53/54
s 3
f 37/43/55 38/44/56 39/45/57 40/46/58
s 4
f 50/57/59 51/59/60 32/26/61 5/14/62
s 2
f 61/69/63 62/70/53 27/25/52 26/35/64
f 60/68/65 61/69/63 26/35/64 25/34/66
f 58/66/38 59/67/67 24/33/68 23/17/39
f 59/67/67 60/68/65 25/34/66 24/33/68
s 3
f 41/47/69 39/45/57 38/44/56 42/48/70
f 43/49/71 41/47/69 42/48/70 44/50/72
f 34/42/41 45/51/73 46/52/74 33/39/42
f 45/51/73 43/49/71 44/50/72 46/52/74
s 4
f 51/59/60 52/60/75 31/38/76 32/26/61
f 52/60/75 53/61/77 30/37/78 31/38/76
f 53/61/77 54/62/79 29/36/80 30/37/78
f 54/62/79 55/63/46 28/19/45 29/36/80
s off
f 28/19/81 12/22/82 35/40/83 33/39/84
f 12/22/85 11/20/86 36/41/87 35/40/88
f 11/20/89 23/17/90 34/42/91 36/41/92
f 5/14/93 32/26/94 38/44/95 37/43/96
f 27/25/97 3/3/98 40/46/99 39/45/100
f 3/3/101 5/14/102 37/43/103 40/46/104
f 26/35/105 27/25/106 39/45/107 41/47/108
f 32/26/109 31/38/110 42/48/111 38/44/112
f 25/34/113 26/35/114 41/47/115 43/49/116
f 31/38/117 30/37/118 44/50/119 42/48/120
f 23/17/121 24/33/122 45/51/123 34/42/124
f 29/36/125 28/19/126 33/39/127 46/52/128
f 24/33/129 25/34/130 43/49/131 45/51/132
f 30/37/133 29/36/134 46/52/135 44/50/136
f 1/1/137 2/2/138 48/54/139 47/53/140
f 64/71/141 63/72/142 65/73/143 66/74/144
f 67/75/145 65/76/146 63/77/147 68/78/148
s 8
f 68/79/149 69/80/150 70/81/151 67/82/152
f 69/80/150 71/83/153 72/84/154 70/81/151
f 71/83/153 73/85/155 74/86/156 72/84/154
f 73/85/155 75/87/157 76/88/158 74/86/156
f 75/87/157 77/89/159 78/90/160 76/88/158
f 79/91/161 78/90/160 77/89/159 80/92/162
s off
f 80/92/163 81/93/164 82/94/165 79/91/166
f 18/15/167 58/66/168 57/65/169 10/18/170
s 9
f 84/95/171 83/96/172 85/97/173 86/98/174
f 83/96/172 87/99/175 88/100/176 85/97/173
f 87/99/175 89/101/177 90/102/178 88/100/176
f 89/101/177 91/103/179 92/104/180 90/102/178
f 93/105/181 92/104/180 91/103/179 94/106/182
s off
f 2/2/183 8/11/184 63/72/185 64/71/186
f 49/56/187 48/54/188 66/74/189 65/73/190
f 48/54/191 2/2/192 64/71/193 66/74/194
f 50/58/195 49/55/196 65/76/197 67/75/198
f 8/8/199 7/7/200 68/78/201 63/77/202
f 7/13/203 13/23/204 69/80/205 68/79/206
f 51/59/207 50/57/208 67/82/209 70/81/210
f 13/23/211 14/27/212 71/83/213 69/80/214
f 52/60/215 51/59/216 70/81/217 72/84/218
f 14/27/219 15/28/220 73/85/221 71/83/222
f 53/61/223 52/60/224 72/84/225 74/86/226
f 15/28/227 16/29/228 75/87/229 73/85/230
f 54/62/231 53/61/232 74/86/233 76/88/234
f 16/29/235 17/21/236 77/89/237 75/87/238
f 55/63/239 54/62/240 76/88/241 78/90/242
f 56/64/243 55/63/244 78/90/245 79/91/246
f 17/21/247 9/16/248 80/92/249 77/89/250
f 9/16/251 10/18/252 81/93/253 80/92/254
f 10/18/255 57/65/256 82/94/257 81/93/258
f 57/65/259 56/64/260 79/91/261 82/94/262
f 18/15/263 19/30/264 83/96/265 84/95/266
f 59/67/267 58/66/268 86/98/269 85/97/270
f 58/66/271 18/15/272 84/95/273 86/98/274
f 19/30/275 20/31/276 87/99/277 83/96/278
f 60/68/279 59/67/280 85/97/281 88/100/282
f 20/31/283 21/32/284 89/101/285 87/99/286
f 61/69/287 60/68/288 88/100/289 90/102/290
f 21/32/291 22/24/292 91/103/293 89/101/294
f 62/70/295 61/69/296 90/102/297 92/104/298
f 47/53/299 62/70/300 92/104/301 93/105/302
f 22/24/303 1/1/304 94/106/305 91/103/306
f 1/1/307 47/53/308 93/105/309 94/106/310
