# This file uses centimeters as units for non-parametric coordinates.

mtllib building_rough_010.mtl
g default
v 0.863944 0.000000 0.199774
v 0.863944 2.797947 0.199774
v 0.863944 2.797947 -0.199774
v 0.863944 0.000000 -0.199774
v 0.889394 2.887801 0.167656
v 0.889394 2.887801 -0.167656
v 0.930651 2.797947 0.214342
v 0.930651 2.887801 0.214342
v 0.930651 2.797947 -0.214342
v 0.930651 2.887801 -0.214342
v -0.965655 2.797947 -0.099877
v -0.965655 2.797947 0.099877
v -0.965655 0.000000 0.099877
v -0.965655 0.000000 -0.099877
v 0.965654 0.000000 0.099877
v 0.965654 0.000000 -0.099877
v 0.965654 2.797947 0.099877
v 0.965654 2.797947 -0.099877
v 1.032361 2.797947 0.099877
v 1.032361 2.797947 -0.099877
v 1.032361 2.887801 0.099877
v 1.032361 2.887801 -0.099877
v 0.940732 2.887801 0.099877
v 0.940732 2.887801 -0.099877
v -0.965655 2.887801 0.099877
v -0.965655 2.887801 -0.099877
v -1.032362 2.887801 0.099877
v -1.032362 2.887801 -0.099877
v -1.032362 2.797947 0.099877
v -1.032362 2.797947 -0.099877
v -0.965655 0.000000 0.529202
v -0.873300 0.000000 0.602592
v -0.871131 2.797947 0.602089
v -0.965655 2.797947 0.526975
v -0.871131 2.797947 -0.602089
v -0.965655 2.797947 -0.526975
v -0.965655 0.000000 -0.529202
v -0.873300 0.000000 -0.602592
v -0.937838 2.797947 0.647591
v -1.032362 2.797947 0.572477
v -0.965655 2.887801 0.519191
v -0.881304 2.887801 0.586411
v -0.937838 2.887801 0.647591
v -1.032362 2.887801 0.572477
v -0.937838 2.797947 -0.647591
v -1.032362 2.797947 -0.572477
v -0.965655 2.887801 -0.519191
v -0.881304 2.887801 -0.586411
v -0.937838 2.887801 -0.647591
v -1.032362 2.887801 -0.572477
v 0.940732 2.942525 -0.099877
v 0.940732 2.942525 0.099877
v -0.965655 2.942525 -0.099877
v -0.965655 2.942525 0.099877
v 0.889394 2.942525 -0.167656
v -0.881304 2.942525 -0.586411
v -0.965655 2.942525 -0.519191
v -0.881304 2.942525 0.586411
v -0.965655 2.942525 0.519191
v 0.889394 2.942525 0.167656
v 0.857077 2.942525 -0.078701
v 0.857077 2.942525 0.078701
v -0.786695 2.942525 -0.078701
v -0.786695 2.942525 0.078701
v 0.812811 2.942525 -0.132109
v -0.713964 2.942525 -0.462078
v -0.786695 2.942525 -0.409110
v -0.713964 2.942525 0.462078
v -0.786695 2.942525 0.409110
v 0.812811 2.942525 0.132109
v 0.857077 3.104523 -0.078701
v 0.857077 3.104523 0.078701
v -0.786695 3.104523 -0.078701
v -0.786695 3.104523 0.078701
v 0.812811 3.104523 -0.132109
v -0.713964 3.104523 -0.462078
v -0.786695 3.104523 -0.409110
v -0.713964 3.104523 0.462078
v -0.786695 3.104523 0.409110
v 0.812811 3.104523 0.132109
vt 0.375000 0.395008
vt 0.270007 0.250000
vt 0.229992 -0.000000
vt 0.375000 0.895007
vt 0.625000 0.812506
vt 0.687506 0.000000
vt 0.812494 0.250000
vt 0.625000 0.312506
vt 0.625000 0.000000
vt 0.687506 0.250000
vt 0.625000 0.316753
vt 0.625000 0.316753
vt 0.625000 0.312506
vt 0.812494 0.000000
vt 0.875000 0.000000
vt 0.875000 0.250000
vt 0.625000 0.437494
vt 0.625000 0.433247
vt 0.625000 0.433247
vt 0.625000 0.937493
vt 0.625000 1.000000
vt 0.387620 1.000000
vt 0.375000 0.981009
vt 0.375000 0.854993
vt 0.375000 0.354992
vt 0.625000 0.437494
vt 0.625000 0.500000
vt 0.387619 0.000000
vt 0.375000 0.269437
vt 0.377917 0.500000
vt 0.375000 0.768991
vt 0.375000 0.270996
vt 0.386527 0.500000
vt 0.625000 0.250000
vt 0.387916 0.500000
vt 0.625000 0.750000
vt 0.387620 0.750000
vt 0.387038 0.250000
vt 0.625000 0.250000
vt 0.625000 0.500000
vt 0.387038 0.500000
vt 0.387925 0.250000
vt 0.625000 0.250000
vt 0.625000 0.250000
vt 0.386526 0.250000
vt 0.387038 0.250000
vt 0.625000 0.500000
vt 0.387038 0.500000
vt 0.625000 0.500000
vt 0.270007 0.000000
vt 0.356009 0.000000
vt 0.355563 0.250000
vt 0.375000 0.356352
vt 0.375000 0.268116
vt 0.375000 0.354993
vt 0.375000 0.268116
vt 0.375000 0.356352
vt 0.144437 0.250000
vt 0.143991 -0.000000
vt 0.229993 0.250000
vt 0.375000 0.395007
vt 0.375000 0.479004
vt 0.375000 0.481884
vt 0.375000 0.481884
vt 0.375000 0.393648
vt 0.375000 0.480563
vt 0.375000 0.393648
vt 0.625000 0.312506
vt 0.625000 0.437494
vt 0.375000 0.395007
vt 0.375000 0.354992
vt 0.625000 0.500000
vt 0.386527 0.500000
vt 0.375000 0.479004
vt 0.375000 0.270996
vt 0.386526 0.250000
vt 0.625000 0.250000
vt 0.625000 0.312506
vt 0.625000 0.437494
vt 0.375000 0.395007
vt 0.375000 0.354992
vt 0.625000 0.500000
vt 0.386527 0.500000
vt 0.375000 0.479004
vt 0.375000 0.270996
vt 0.386526 0.250000
vt 0.625000 0.250000
vt 0.625000 0.312506
vt 0.625000 0.437494
vt 0.375000 0.395007
vt 0.375000 0.354992
vt 0.625000 0.500000
vt 0.386527 0.500000
vt 0.375000 0.479004
vt 0.375000 0.270996
vt 0.386526 0.250000
vt 0.625000 0.250000
vn 0.000000 -1.000000 0.000000
vn 0.000000 -1.000000 0.000000
vn 0.000000 -1.000000 0.000000
vn 0.000000 -1.000000 0.000000
vn -1.000000 0.000000 0.000000
vn -1.000000 0.000000 0.000000
vn -1.000000 0.000000 0.000000
vn -1.000000 0.000000 0.000000
vn 0.000000 -1.000000 0.000000
vn 0.000000 -1.000000 0.000000
vn 0.000000 -1.000000 0.000000
vn 0.000000 -1.000000 0.000000
vn 0.946938 0.000000 0.321418
vn 0.946938 0.000000 -0.321418
vn 0.946938 0.000000 -0.321418
vn 0.946938 0.000000 0.321418
vn 0.000000 -1.000000 0.000000
vn 0.000000 -1.000000 0.000000
vn 0.000000 -1.000000 0.000000
vn 0.000000 -1.000000 0.000000
vn 0.951399 0.000000 0.307960
vn 0.951399 0.000000 -0.307960
vn 0.951399 0.000000 -0.307960
vn 0.951399 0.000000 0.307960
vn 0.000000 1.000000 0.000001
vn 0.000000 1.000000 -0.000001
vn 0.000000 1.000000 -0.000001
vn 0.000000 1.000000 0.000001
vn 0.000000 1.000000 0.000000
vn 0.000000 1.000000 -0.000000
vn 0.000000 1.000000 -0.000000
vn 0.000000 1.000000 0.000000
vn 0.000000 1.000000 0.000000
vn 0.000000 1.000000 0.000000
vn 0.000000 1.000000 0.000000
vn 0.000000 1.000000 0.000000
vn -1.000000 0.000000 0.000000
vn -1.000000 0.000000 0.000000
vn -1.000000 0.000000 0.000000
vn -1.000000 0.000000 0.000000
vn 0.000000 -1.000000 0.000000
vn 0.000000 -1.000000 0.000000
vn 0.000000 -1.000000 0.000000
vn 0.700718 0.000000 0.713438
vn 0.700718 0.000000 0.713438
vn 0.747526 0.000000 0.664233
vn 0.747526 0.000000 0.664233
vn 0.000000 -1.000000 0.000000
vn 0.000000 -1.000000 0.000000
vn 0.000000 1.000000 0.000002
vn 0.000000 1.000000 0.000002
vn 0.700718 0.000000 -0.713438
vn 0.700718 0.000000 -0.713438
vn 0.000000 -1.000000 0.000000
vn 0.000000 -1.000000 0.000000
vn 0.747526 0.000000 -0.664233
vn 0.747526 0.000000 -0.664233
vn 0.000000 1.000000 -0.000000
vn 0.000000 1.000000 -0.000000
vn 0.000000 1.000000 -0.000000
vn 0.000000 1.000000 -0.000000
vn 0.000000 1.000000 -0.000000
vn 0.000000 -1.000000 0.000000
vn 0.000000 -1.000000 0.000000
vn 0.000000 -1.000000 0.000000
vn 0.000000 1.000000 0.000000
vn 0.000000 1.000000 0.000000
vn 0.000000 1.000000 0.000000
vn -0.622142 0.000623 0.782904
vn -0.622142 0.000623 0.782904
vn -0.622142 0.000623 0.782904
vn -0.622142 0.000623 0.782904
vn 0.000000 -1.000000 0.000000
vn 0.000000 -1.000000 0.000000
vn 0.000000 -1.000000 0.000000
vn 0.000000 -1.000000 0.000000
vn 0.000000 -1.000000 0.000000
vn 0.000000 -1.000000 0.000000
vn 0.000000 -1.000000 0.000000
vn 0.000000 -1.000000 0.000000
vn -0.622142 0.000623 -0.782904
vn -0.622142 0.000623 -0.782904
vn -0.622142 0.000623 -0.782904
vn -0.622142 0.000623 -0.782904
vn -0.622142 0.000000 0.782904
vn -0.622142 0.000000 0.782904
vn -0.622142 0.000000 0.782904
vn -0.622142 0.000000 0.782904
vn 0.000000 1.000000 0.000002
vn 0.000000 1.000000 0.000000
vn 0.000000 1.000000 0.000001
vn 0.000000 1.000000 0.000002
vn -0.622142 0.000000 -0.782904
vn -0.622142 0.000000 -0.782904
vn -0.622142 0.000000 -0.782904
vn -0.622142 0.000000 -0.782904
vn 0.000000 1.000000 -0.000000
vn 0.000000 1.000000 -0.000000
vn 0.000000 1.000000 -0.000000
vn 0.000000 1.000000 -0.000001
vn 0.225879 0.000000 0.974155
vn 0.225879 0.000000 0.974155
vn 0.225879 0.000000 0.974155
vn 0.225879 0.000000 0.974155
vn 0.225879 0.000000 -0.974155
vn 0.225879 0.000000 -0.974155
vn 0.225879 0.000000 -0.974155
vn 0.225879 0.000000 -0.974155
vn 0.225879 0.000000 0.974155
vn 0.225879 0.000000 0.974155
vn 0.225879 0.000000 0.974155
vn 0.225879 0.000000 0.974155
vn 0.225879 0.000000 -0.974155
vn 0.225879 0.000000 -0.974155
vn 0.225879 0.000000 -0.974155
vn 0.225879 0.000000 -0.974155
vn -1.000000 0.000000 0.000000
vn -1.000000 0.000000 0.000000
vn -1.000000 0.000000 0.000000
vn -1.000000 0.000000 0.000000
vn -1.000000 0.000000 0.000000
vn -1.000000 0.000000 0.000000
vn -1.000000 0.000000 0.000000
vn -1.000000 0.000000 0.000000
vn 1.000000 0.000000 0.000000
vn 1.000000 0.000000 0.000000
vn 1.000000 0.000000 0.000000
vn 1.000000 0.000000 0.000000
vn -1.000000 0.000000 0.000000
vn -1.000000 0.000000 0.000000
vn -1.000000 0.000000 0.000000
vn -1.000000 0.000000 0.000000
vn 0.797146 0.000000 -0.603786
vn 0.797146 0.000000 -0.603786
vn 0.797146 0.000000 -0.603786
vn 0.797146 0.000000 -0.603786
vn 0.230142 0.000000 -0.973157
vn 0.230142 0.000000 -0.973157
vn 0.230142 0.000000 -0.973157
vn 0.230142 0.000000 -0.973157
vn -0.623218 0.000000 -0.782048
vn -0.623218 0.000000 -0.782048
vn -0.623218 0.000000 -0.782048
vn -0.623218 0.000000 -0.782048
vn -1.000000 0.000000 0.000000
vn -1.000000 0.000000 0.000000
vn -1.000000 0.000000 0.000000
vn -1.000000 0.000000 0.000000
vn -0.623218 0.000000 0.782048
vn -0.623218 0.000000 0.782048
vn -0.623218 0.000000 0.782048
vn -0.623218 0.000000 0.782048
vn 0.230142 0.000000 0.973157
vn 0.230142 0.000000 0.973157
vn 0.230142 0.000000 0.973157
vn 0.230142 0.000000 0.973157
vn 0.797146 0.000000 0.603786
vn 0.797146 0.000000 0.603786
vn 0.797146 0.000000 0.603786
vn 0.797146 0.000000 0.603786
vn -1.000000 0.000000 0.000000
vn -1.000000 0.000000 0.000000
vn -1.000000 0.000000 0.000000
vn -1.000000 0.000000 0.000000
vn 0.000000 1.000000 0.000000
vn 0.000000 1.000000 0.000000
vn 0.000000 1.000000 0.000000
vn 0.000000 1.000000 0.000000
vn 0.000000 1.000000 0.000000
vn 0.000000 1.000000 0.000000
vn 0.000000 1.000000 0.000000
vn 0.000000 1.000000 0.000000
vn 0.000000 1.000000 0.000002
vn 0.000000 1.000000 0.000002
vn 0.000000 1.000000 0.000002
vn 0.000000 1.000000 0.000002
vn 0.000000 1.000000 -0.000001
vn 0.000000 1.000000 -0.000001
vn 0.000000 1.000000 -0.000001
vn 0.000000 1.000000 -0.000001
vn 0.000000 1.000000 -0.000002
vn 0.000000 1.000000 -0.000002
vn 0.000000 1.000000 -0.000002
vn 0.000000 1.000000 -0.000002
vn 0.000000 1.000000 0.000000
vn 0.000000 1.000000 0.000000
vn 0.000000 1.000000 0.000000
vn 0.000000 1.000000 0.000000
vn 0.000000 1.000000 0.000000
vn 0.000000 1.000000 0.000000
vn 0.000000 1.000000 0.000000
vn 0.000000 1.000000 0.000000
vn 0.000000 1.000000 -0.000001
vn 0.000000 1.000000 -0.000001
vn 0.000000 1.000000 -0.000001
vn 0.000000 1.000000 -0.000001
vn 0.000000 1.000000 0.000000
vn 0.000000 1.000000 0.000000
vn 0.000000 1.000000 0.000000
vn 0.000000 1.000000 0.000000
vn 0.000000 1.000000 0.000000
vn 0.000000 1.000000 0.000000
vn 0.000000 1.000000 0.000000
vn 0.000000 1.000000 0.000000
vn 1.000000 0.000000 0.000000
vn 1.000000 0.000000 0.000000
vn 1.000000 0.000000 0.000000
vn 1.000000 0.000000 0.000000
vn -1.000000 0.000000 0.000000
vn -1.000000 0.000000 0.000000
vn -1.000000 0.000000 0.000000
vn -1.000000 0.000000 0.000000
vn 0.769925 0.000000 -0.638135
vn 0.769925 0.000000 -0.638135
vn 0.769925 0.000000 -0.638135
vn 0.769925 0.000000 -0.638135
vn 0.211244 0.000000 -0.977433
vn 0.211244 0.000000 -0.977433
vn 0.211244 0.000000 -0.977433
vn 0.211244 0.000000 -0.977433
vn -0.588697 0.000000 -0.808354
vn -0.588697 0.000000 -0.808354
vn -0.588697 0.000000 -0.808354
vn -0.588697 0.000000 -0.808354
vn -1.000000 0.000000 0.000000
vn -1.000000 0.000000 0.000000
vn -1.000000 0.000000 0.000000
vn -1.000000 0.000000 0.000000
vn -0.588697 0.000000 0.808354
vn -0.588697 0.000000 0.808354
vn -0.588697 0.000000 0.808354
vn -0.588697 0.000000 0.808354
vn 0.211244 0.000000 0.977433
vn 0.211244 0.000000 0.977433
vn 0.211244 0.000000 0.977433
vn 0.211244 0.000000 0.977433
vn 0.769925 0.000000 0.638135
vn 0.769925 0.000000 0.638135
vn 0.769925 0.000000 0.638135
vn 0.769925 0.000000 0.638135
vn -1.000000 0.000000 0.000000
vn -1.000000 0.000000 0.000000
vn -1.000000 0.000000 0.000000
vn -1.000000 0.000000 0.000000
s 1
g Building_10
usemtl initialShadingGroup
f 11/1/1 12/55/2 29/53/3 30/67/4
s 2
f 12/2/5 11/60/6 14/3/7 13/50/8
s 3
f 13/4/9 14/24/10 16/5/11 15/20/12
s 4
f 15/6/13 16/14/14 18/7/15 17/10/16
s 1
f 17/8/17 18/17/18 20/18/19 19/12/20
s 6
f 19/12/21 20/18/22 22/19/23 21/11/24
s 7
f 21/11/25 22/19/26 24/26/27 23/13/28
s 8
f 72/88/29 71/89/30 73/90/31 74/91/32
s 7
f 25/25/33 26/61/34 28/65/35 27/57/36
s 10
f 27/57/37 28/65/38 30/67/39 29/53/40
s 3
f 13/4/9 15/20/12 1/21/41 32/22/42 31/23/43
s 4
f 1/9/44 15/6/13 17/10/16 2/34/45
s 6
f 7/43/46 19/12/21 21/11/24 8/39/47
s 1
f 2/34/48 17/8/17 19/12/20 7/43/49
s 7
f 21/11/25 23/13/28 5/44/50 8/39/51
s 4
f 18/7/15 16/14/14 4/15/52 3/16/53
s 1
f 20/18/19 18/17/18 3/47/54 9/40/55
s 6
f 22/19/23 20/18/22 9/40/56 10/49/57
s 7
f 6/27/58 24/26/27 22/19/26 10/49/59
s 8
f 73/90/31 71/89/30 75/92/60 76/93/61 77/94/62
s 3
f 37/31/63 38/37/64 4/36/65 16/5/11 14/24/10
s 8
f 79/95/66 78/96/67 80/97/68 72/88/29 74/91/32
s off
f 31/51/69 32/28/70 33/42/71 34/29/72
s 1
f 34/29/73 33/42/74 39/38/75 40/56/76
f 35/35/77 36/66/78 46/64/79 45/48/80
s off
f 36/30/81 35/35/82 38/37/83 37/31/84
f 40/56/85 39/38/86 43/46/87 44/54/88
s 7
f 42/45/89 41/32/90 44/54/91 43/46/92
s off
f 45/48/93 46/64/94 50/63/95 49/41/96
s 7
f 47/62/97 48/33/98 49/41/99 50/63/100
s off
f 33/42/101 32/28/102 1/9/103 2/34/104
f 35/35/105 3/47/106 4/36/107 38/37/108
f 39/38/109 7/43/110 8/39/111 43/46/112
f 9/40/113 45/48/114 49/41/115 10/49/116
s 1
f 33/42/74 2/34/48 7/43/49 39/38/75
s 7
f 5/44/50 42/45/89 43/46/92 8/39/51
s 1
f 3/47/54 35/35/77 45/48/80 9/40/55
s 7
f 49/41/99 48/33/98 6/27/58 10/49/59
s 2
f 12/2/5 13/50/8 31/51/117 34/52/118
s 10
f 27/57/37 29/53/40 40/56/119 44/54/120
s 1
f 29/53/3 12/55/2 34/29/73 40/56/76
s 7
f 44/54/91 41/32/90 25/25/33 27/57/36
s 2
f 36/58/121 37/59/122 14/3/7 11/60/6
s 7
f 28/65/35 26/61/34 47/62/97 50/63/100
s 10
f 46/64/123 30/67/39 28/65/38 50/63/124
s 1
f 36/66/78 11/1/1 30/67/4 46/64/79
s off
f 23/13/125 24/26/126 51/69/127 52/68/128
f 26/61/129 25/25/130 54/71/131 53/70/132
f 24/26/133 6/27/134 55/72/135 51/69/136
f 6/27/137 48/33/138 56/73/139 55/72/140
f 48/33/141 47/62/142 57/74/143 56/73/144
f 47/62/145 26/61/146 53/70/147 57/74/148
f 41/32/149 42/45/150 58/76/151 59/75/152
f 42/45/153 5/44/154 60/77/155 58/76/156
f 5/44/157 23/13/158 52/68/159 60/77/160
f 25/25/161 41/32/162 59/75/163 54/71/164
f 52/68/165 51/69/166 61/79/167 62/78/168
f 53/70/169 54/71/170 64/81/171 63/80/172
f 51/69/173 55/72/174 65/82/175 61/79/176
f 55/72/177 56/73/178 66/83/179 65/82/180
f 56/73/181 57/74/182 67/84/183 66/83/184
f 57/74/185 53/70/186 63/80/187 67/84/188
f 59/75/189 58/76/190 68/86/191 69/85/192
f 58/76/193 60/77/194 70/87/195 68/86/196
f 60/77/197 52/68/198 62/78/199 70/87/200
f 54/71/201 59/75/202 69/85/203 64/81/204
f 62/78/205 61/79/206 71/89/207 72/88/208
f 63/80/209 64/81/210 74/91/211 73/90/212
f 61/79/213 65/82/214 75/92/215 71/89/216
f 65/82/217 66/83/218 76/93/219 75/92/220
f 66/83/221 67/84/222 77/94/223 76/93/224
f 67/84/225 63/80/226 73/90/227 77/94/228
f 69/85/229 68/86/230 78/96/231 79/95/232
f 68/86/233 70/87/234 80/97/235 78/96/236
f 70/87/237 62/78/238 72/88/239 80/97/240
f 64/81/241 69/85/242 79/95/243 74/91/244
